<mxfile host="app.diagrams.net" modified="2023-09-08T11:51:53.087Z" agent="Mozilla/5.0 (Windows NT 10.0; Win64; x64) AppleWebKit/537.36 (KHTML, like Gecko) Chrome/115.0.0.0 Safari/537.36 Edg/115.0.1901.203" etag="iOBgU7ijjwjR7_qyzO1H" version="21.7.2" type="github">
  <diagram name="第 1 页" id="SOyJpFyxm3MqaUygj6Lt">
    <mxGraphModel dx="1042" dy="569" grid="1" gridSize="10" guides="1" tooltips="1" connect="1" arrows="1" fold="1" page="1" pageScale="1" pageWidth="827" pageHeight="1169" math="0" shadow="0">
      <root>
        <mxCell id="0" />
        <mxCell id="1" parent="0" />
        <mxCell id="hntj5daju9406_IprP7K-2" value="" style="ellipse;whiteSpace=wrap;html=1;aspect=fixed;strokeWidth=6;" parent="1" vertex="1">
          <mxGeometry x="320" y="180" width="80" height="80" as="geometry" />
        </mxCell>
        <mxCell id="hntj5daju9406_IprP7K-3" value="" style="endArrow=none;html=1;rounded=0;strokeWidth=6;" parent="1" edge="1">
          <mxGeometry width="50" height="50" relative="1" as="geometry">
            <mxPoint x="360" y="360" as="sourcePoint" />
            <mxPoint x="360" y="260" as="targetPoint" />
          </mxGeometry>
        </mxCell>
        <mxCell id="hntj5daju9406_IprP7K-5" value="" style="endArrow=none;html=1;rounded=0;strokeWidth=6;entryX=0.5;entryY=1;entryDx=0;entryDy=0;" parent="1" target="hntj5daju9406_IprP7K-2" edge="1">
          <mxGeometry width="50" height="50" relative="1" as="geometry">
            <mxPoint x="300" y="290" as="sourcePoint" />
            <mxPoint x="240" y="270" as="targetPoint" />
          </mxGeometry>
        </mxCell>
        <mxCell id="hntj5daju9406_IprP7K-6" value="" style="endArrow=none;html=1;rounded=0;strokeWidth=6;entryX=0.5;entryY=1;entryDx=0;entryDy=0;" parent="1" target="hntj5daju9406_IprP7K-2" edge="1">
          <mxGeometry width="50" height="50" relative="1" as="geometry">
            <mxPoint x="390" y="320" as="sourcePoint" />
            <mxPoint x="670" y="220" as="targetPoint" />
          </mxGeometry>
        </mxCell>
        <mxCell id="hntj5daju9406_IprP7K-7" value="" style="endArrow=none;html=1;rounded=0;strokeWidth=6;" parent="1" edge="1">
          <mxGeometry width="50" height="50" relative="1" as="geometry">
            <mxPoint x="400" y="400" as="sourcePoint" />
            <mxPoint x="360" y="360" as="targetPoint" />
          </mxGeometry>
        </mxCell>
        <mxCell id="hntj5daju9406_IprP7K-8" value="" style="endArrow=none;html=1;rounded=0;strokeWidth=6;" parent="1" edge="1">
          <mxGeometry width="50" height="50" relative="1" as="geometry">
            <mxPoint x="310" y="410" as="sourcePoint" />
            <mxPoint x="360" y="360" as="targetPoint" />
          </mxGeometry>
        </mxCell>
        <mxCell id="hntj5daju9406_IprP7K-9" value="" style="endArrow=none;html=1;rounded=0;strokeWidth=6;" parent="1" edge="1">
          <mxGeometry width="50" height="50" relative="1" as="geometry">
            <mxPoint x="260" y="460" as="sourcePoint" />
            <mxPoint x="310" y="410" as="targetPoint" />
          </mxGeometry>
        </mxCell>
        <mxCell id="hntj5daju9406_IprP7K-10" value="" style="endArrow=none;html=1;rounded=0;strokeWidth=6;" parent="1" edge="1">
          <mxGeometry width="50" height="50" relative="1" as="geometry">
            <mxPoint x="410" y="460" as="sourcePoint" />
            <mxPoint x="400" y="400" as="targetPoint" />
          </mxGeometry>
        </mxCell>
        <mxCell id="hntj5daju9406_IprP7K-11" value="" style="endArrow=none;html=1;rounded=0;strokeWidth=6;" parent="1" edge="1">
          <mxGeometry width="50" height="50" relative="1" as="geometry">
            <mxPoint x="240" y="280" as="sourcePoint" />
            <mxPoint x="300" y="290" as="targetPoint" />
          </mxGeometry>
        </mxCell>
        <mxCell id="hntj5daju9406_IprP7K-12" value="" style="endArrow=none;html=1;rounded=0;strokeWidth=6;" parent="1" edge="1">
          <mxGeometry width="50" height="50" relative="1" as="geometry">
            <mxPoint x="450" y="310" as="sourcePoint" />
            <mxPoint x="390" y="320" as="targetPoint" />
          </mxGeometry>
        </mxCell>
        <mxCell id="X-k5K1octKyZzF4WiJFh-1" value="快点快点，腿都麻了" style="whiteSpace=wrap;html=1;shape=mxgraph.basic.roundRectCallout;dx=30;dy=15;size=5;boundedLbl=1;fontFamily=微软雅黑;fontSize=19;" vertex="1" parent="1">
          <mxGeometry x="580" y="110" width="180" height="80" as="geometry" />
        </mxCell>
        <mxCell id="X-k5K1octKyZzF4WiJFh-2" value="去帮我买报纸，&lt;br style=&quot;font-size: 19px;&quot;&gt;&amp;nbsp; &amp;nbsp; 不是买包子" style="whiteSpace=wrap;html=1;shape=mxgraph.basic.roundRectCallout;dx=30;dy=15;size=5;boundedLbl=1;fontFamily=微软雅黑;fontSize=19;" vertex="1" parent="1">
          <mxGeometry x="580" y="210" width="180" height="80" as="geometry" />
        </mxCell>
        <mxCell id="X-k5K1octKyZzF4WiJFh-3" value="瞄准一点好不好" style="whiteSpace=wrap;html=1;shape=mxgraph.basic.roundRectCallout;dx=30;dy=15;size=5;boundedLbl=1;fontFamily=微软雅黑;fontSize=19;" vertex="1" parent="1">
          <mxGeometry x="580" y="300" width="180" height="80" as="geometry" />
        </mxCell>
        <mxCell id="X-k5K1octKyZzF4WiJFh-4" value="哇，终于接到了，等我出去给你买包子" style="whiteSpace=wrap;html=1;shape=mxgraph.basic.roundRectCallout;dx=30;dy=15;size=5;boundedLbl=1;fontFamily=微软雅黑;fontSize=19;" vertex="1" parent="1">
          <mxGeometry x="580" y="430" width="180" height="80" as="geometry" />
        </mxCell>
        <mxCell id="X-k5K1octKyZzF4WiJFh-5" value="&lt;font style=&quot;font-size: 24px;&quot;&gt;就这，就这？&lt;/font&gt;" style="whiteSpace=wrap;html=1;shape=mxgraph.basic.roundRectCallout;dx=30;dy=15;size=5;boundedLbl=1;fontFamily=微软雅黑;fontSize=19;" vertex="1" parent="1">
          <mxGeometry x="360" y="20" width="180" height="80" as="geometry" />
        </mxCell>
      </root>
    </mxGraphModel>
  </diagram>
</mxfile>
